#define 1514989279983_width 40
#define 1514989279983_height 40
static char 1514989279983_bits[] = {
  0x00, 0x00, 0x30, 0x00, 0x00, 0x00, 0x00, 0x30, 0x00, 0x00, 0x00, 0x00, 
  0x30, 0x00, 0x00, 0x00, 0x00, 0x30, 0x00, 0x00, 0x00, 0x00, 0x30, 0x00, 
  0x00, 0xC0, 0x01, 0x00, 0x00, 0x00, 0x80, 0x03, 0x00, 0x00, 0x00, 0x00, 
  0x07, 0x00, 0x00, 0x06, 0x00, 0x02, 0x00, 0x00, 0x07, 0x00, 0x00, 0x00, 
  0x80, 0x03, 0x00, 0x00, 0x7E, 0x00, 0x01, 0x00, 0x80, 0xFF, 0x01, 0x00, 
  0x00, 0xC0, 0xE7, 0x03, 0x00, 0x00, 0xE0, 0x00, 0x0F, 0x00, 0x00, 0x70, 
  0x00, 0x0E, 0x00, 0x00, 0x38, 0x00, 0x1C, 0x00, 0x00, 0x18, 0x00, 0x18, 
  0x00, 0x00, 0x1C, 0x00, 0x38, 0x00, 0x1F, 0x1C, 0x00, 0x38, 0x00, 0x1F, 
  0x0C, 0x00, 0x30, 0x00, 0x00, 0x0C, 0x00, 0x30, 0xF8, 0x00, 0x1C, 0x00, 
  0x38, 0xF8, 0x00, 0x1C, 0x00, 0x38, 0x00, 0x00, 0x18, 0x00, 0x18, 0x00, 
  0x00, 0x38, 0x00, 0x1C, 0x00, 0x00, 0x70, 0x00, 0x0E, 0x00, 0x00, 0xE0, 
  0x00, 0x0F, 0x00, 0x00, 0xC0, 0x81, 0x03, 0x00, 0x00, 0x80, 0x81, 0x01, 
  0x00, 0x00, 0x80, 0x81, 0x01, 0x00, 0x00, 0x80, 0xFF, 0x01, 0x00, 0x00, 
  0x80, 0xFF, 0x01, 0x00, 0x00, 0x00, 0x00, 0x00, 0x00, 0x00, 0x00, 0x00, 
  0x00, 0x00, 0x00, 0x00, 0x00, 0x00, 0x00, 0x00, 0x80, 0xFF, 0x01, 0x00, 
  0x00, 0x80, 0xFF, 0x01, 0x00, 0x00, 0x00, 0x7E, 0x00, 0x00, 0x00, 0x00, 
  0x3C, 0x00, 0x00, 0x00, 0x00, 0x18, 0x00, 0x00, };
