#define 1514416565507_width 89
#define 1514416565507_height 89
static char 1514416565507_bits[] = {
  0x00, 0x00, 0x00, 0x00, 0x00, 0x00, 0x00, 0x00, 0x00, 0x00, 0x00, 0x00, 
  0x00, 0x00, 0x00, 0x00, 0x00, 0x03, 0x00, 0x00, 0x00, 0x00, 0x00, 0x00, 
  0x00, 0x00, 0x00, 0x00, 0xFC, 0x07, 0x10, 0x00, 0x00, 0x00, 0x00, 0x00, 
  0x00, 0x00, 0x00, 0xE0, 0xFF, 0x47, 0x30, 0x00, 0x00, 0x00, 0x00, 0x00, 
  0x00, 0x00, 0x00, 0xE0, 0x6F, 0xC6, 0x30, 0x00, 0x00, 0x00, 0x00, 0x00, 
  0x00, 0xC0, 0x00, 0xC0, 0xFC, 0xC7, 0x30, 0x00, 0x00, 0x00, 0x00, 0x00, 
  0x00, 0xE0, 0x01, 0xDF, 0xFF, 0xC3, 0x31, 0x00, 0x00, 0x00, 0x00, 0x00, 
  0x00, 0xE0, 0x83, 0xDF, 0x0F, 0x82, 0x71, 0x00, 0x00, 0x00, 0x00, 0x00, 
  0x00, 0x70, 0x8E, 0x19, 0x42, 0x86, 0x71, 0x00, 0x00, 0x00, 0x00, 0x00, 
  0x80, 0x30, 0x9C, 0x19, 0xE3, 0x8F, 0x61, 0x00, 0x00, 0x00, 0x00, 0x00, 
  0xFC, 0x39, 0x38, 0x99, 0xE9, 0x8F, 0x61, 0x00, 0x00, 0x00, 0x00, 0x00, 
  0xFC, 0x19, 0x70, 0x93, 0xED, 0x86, 0x61, 0x00, 0x00, 0x00, 0x00, 0x00, 
  0x8C, 0x99, 0x0F, 0xB3, 0xE7, 0x8F, 0x21, 0x00, 0x00, 0x00, 0x00, 0x00, 
  0x0C, 0xEF, 0x0F, 0x33, 0xF6, 0x0F, 0x01, 0x00, 0x00, 0x00, 0x00, 0x00, 
  0x0C, 0xC3, 0x00, 0x33, 0xCF, 0x06, 0x40, 0x00, 0x00, 0x00, 0x00, 0x00, 
  0x18, 0x03, 0x10, 0x33, 0xDF, 0x1E, 0xE3, 0x00, 0x00, 0x00, 0x00, 0x00, 
  0x18, 0x83, 0x3F, 0xBE, 0xFF, 0x9F, 0x63, 0x00, 0x00, 0x00, 0x00, 0x00, 
  0x18, 0xE3, 0x3F, 0xBE, 0xAF, 0x0D, 0x03, 0x00, 0x00, 0x00, 0x00, 0x00, 
  0x18, 0x63, 0x30, 0x00, 0x9C, 0x1D, 0x00, 0x00, 0x00, 0x00, 0x00, 0x00, 
  0xF8, 0x63, 0x30, 0x00, 0xBF, 0x3F, 0x00, 0x00, 0x07, 0x00, 0x00, 0x00, 
  0xF0, 0x40, 0x60, 0x80, 0xAD, 0x07, 0x00, 0x80, 0x08, 0x00, 0x00, 0x00, 
  0x00, 0xC0, 0x60, 0x80, 0x0D, 0x00, 0x00, 0x40, 0x08, 0x00, 0x00, 0x00, 
  0x00, 0xC0, 0x7F, 0x00, 0x00, 0xF8, 0x00, 0x40, 0x08, 0x00, 0x00, 0x00, 
  0x00, 0xC0, 0x3F, 0x00, 0x00, 0xDE, 0x3F, 0x60, 0x08, 0x00, 0x00, 0x00, 
  0x00, 0x80, 0x01, 0x00, 0x00, 0x83, 0xE1, 0x43, 0x04, 0x0F, 0x00, 0x00, 
  0x00, 0x00, 0x00, 0x00, 0x80, 0x01, 0xC1, 0x7C, 0x84, 0x09, 0x00, 0x00, 
  0x00, 0x00, 0x00, 0x00, 0xC0, 0x86, 0xE1, 0xE3, 0xC3, 0x18, 0x00, 0x00, 
  0x00, 0x00, 0x00, 0x00, 0x40, 0xB7, 0x31, 0xC2, 0x63, 0x08, 0x00, 0x00, 
  0x00, 0x00, 0x00, 0x00, 0x40, 0xB6, 0xF9, 0x06, 0x27, 0x08, 0x00, 0x00, 
  0x00, 0x00, 0x00, 0x00, 0x40, 0xB0, 0xF1, 0xF6, 0x38, 0x0C, 0x00, 0x00, 
  0x00, 0x00, 0x00, 0x00, 0x40, 0xC0, 0x70, 0x9A, 0x71, 0x06, 0x00, 0x00, 
  0x00, 0x00, 0x00, 0x00, 0xC0, 0x60, 0xE0, 0x0B, 0xE3, 0x03, 0x00, 0x00, 
  0x00, 0x00, 0x00, 0x00, 0x80, 0x79, 0x80, 0x78, 0xC2, 0x01, 0x00, 0x00, 
  0x00, 0x00, 0x00, 0x00, 0x80, 0x3F, 0x00, 0x38, 0x83, 0x01, 0x00, 0x00, 
  0x00, 0x00, 0x00, 0x00, 0x00, 0x07, 0x00, 0x18, 0x01, 0x03, 0x00, 0x00, 
  0x00, 0x00, 0x00, 0x00, 0x00, 0x06, 0x00, 0xF0, 0x01, 0x02, 0x00, 0x00, 
  0x00, 0x00, 0x00, 0x00, 0x00, 0x1C, 0x00, 0x00, 0x00, 0x06, 0x00, 0x00, 
  0x00, 0x00, 0x00, 0x00, 0x00, 0x30, 0x00, 0x00, 0x00, 0x04, 0x00, 0x00, 
  0x00, 0x00, 0x00, 0x00, 0x00, 0xE0, 0x01, 0x00, 0x00, 0x0C, 0x00, 0x00, 
  0x00, 0x00, 0x00, 0x00, 0x00, 0x80, 0x03, 0x00, 0xF8, 0x08, 0x00, 0x00, 
  0x00, 0x00, 0x00, 0x00, 0x00, 0x80, 0x03, 0x00, 0xFC, 0x09, 0x00, 0x00, 
  0x00, 0x00, 0x00, 0x00, 0x00, 0x80, 0x00, 0x00, 0xFE, 0x09, 0x00, 0x00, 
  0x00, 0x00, 0x00, 0x00, 0x00, 0xC0, 0x06, 0x00, 0xFE, 0x09, 0x00, 0x00, 
  0x00, 0x00, 0x00, 0x00, 0x00, 0x40, 0x06, 0x00, 0xFF, 0x09, 0x00, 0x00, 
  0x00, 0x00, 0x00, 0x00, 0x00, 0x60, 0x0F, 0x00, 0xFF, 0x09, 0x00, 0x00, 
  0x00, 0x00, 0x00, 0x00, 0x00, 0x20, 0x1F, 0x00, 0xFE, 0x09, 0x00, 0x00, 
  0x00, 0x00, 0x00, 0x00, 0x00, 0x20, 0xFF, 0x60, 0xFE, 0x08, 0x00, 0x00, 
  0x00, 0x00, 0x00, 0x00, 0x00, 0x20, 0xFF, 0x7F, 0x7C, 0x08, 0x00, 0x00, 
  0x00, 0x00, 0x00, 0x00, 0x00, 0x20, 0xFF, 0x7F, 0x18, 0x0C, 0x00, 0x00, 
  0x00, 0x00, 0x00, 0x00, 0x00, 0x20, 0xFE, 0x7F, 0x00, 0x0C, 0x00, 0x00, 
  0x00, 0x00, 0x00, 0x00, 0x40, 0x20, 0xFE, 0x3F, 0x00, 0x04, 0x00, 0x00, 
  0x00, 0x00, 0x00, 0x00, 0x60, 0x60, 0xFC, 0x1F, 0x00, 0x06, 0x04, 0x00, 
  0x00, 0x00, 0x00, 0x00, 0xFC, 0x40, 0xF0, 0x0F, 0x00, 0x02, 0x06, 0x00, 
  0x00, 0x00, 0x00, 0x00, 0xF8, 0xC0, 0xC0, 0x01, 0x00, 0x03, 0x1E, 0x00, 
  0x00, 0x00, 0x00, 0x00, 0xF0, 0x81, 0x01, 0x00, 0x80, 0x01, 0x1E, 0x00, 
  0x00, 0x00, 0x00, 0x00, 0x80, 0x03, 0x03, 0x00, 0xC0, 0x80, 0x0F, 0x00, 
  0x00, 0x00, 0x00, 0x00, 0x00, 0x8F, 0x07, 0x00, 0xE0, 0xE1, 0x01, 0x00, 
  0x00, 0x00, 0x00, 0x00, 0x00, 0x9C, 0x1F, 0x00, 0xF8, 0x73, 0x00, 0x00, 
  0x00, 0x00, 0x00, 0x00, 0x00, 0xF8, 0xFF, 0x00, 0xFE, 0x3B, 0x00, 0x00, 
  0x00, 0x00, 0x00, 0x00, 0x00, 0xF0, 0xFF, 0xFF, 0xFF, 0x0F, 0x00, 0x00, 
  0x00, 0x00, 0x00, 0x00, 0x00, 0xE0, 0xFF, 0xFF, 0xFF, 0x07, 0x00, 0x00, 
  0x00, 0x00, 0x00, 0x00, 0x00, 0xE0, 0xFF, 0xFF, 0xFF, 0x0F, 0x00, 0x00, 
  0x00, 0x00, 0x00, 0x00, 0x00, 0xF0, 0xFF, 0xFF, 0xFF, 0x0F, 0x00, 0x00, 
  0x00, 0x00, 0x00, 0x00, 0x00, 0xF0, 0xFF, 0xFF, 0xFF, 0x0F, 0x00, 0x00, 
  0x00, 0x00, 0x00, 0x00, 0x00, 0xF0, 0xFF, 0xFF, 0xFF, 0x1F, 0x00, 0x00, 
  0x00, 0x00, 0x00, 0x00, 0x00, 0xF8, 0xFF, 0xFF, 0xFF, 0x1F, 0x00, 0x00, 
  0x00, 0x00, 0x00, 0x00, 0x00, 0xF8, 0xFF, 0xFF, 0xFF, 0x1F, 0x00, 0x00, 
  0x00, 0x00, 0x00, 0x00, 0x00, 0xF8, 0xFF, 0xFF, 0xFF, 0x1F, 0x00, 0x00, 
  0x00, 0x00, 0x00, 0x00, 0x00, 0xF8, 0xFF, 0xFF, 0xFF, 0x3F, 0x03, 0x00, 
  0x00, 0x00, 0x00, 0x00, 0x00, 0xFC, 0xFF, 0xFF, 0xFF, 0xBF, 0x07, 0x00, 
  0x00, 0x00, 0x00, 0x00, 0x00, 0xFC, 0xFF, 0xFF, 0xFF, 0xFF, 0x06, 0x00, 
  0x00, 0x00, 0x00, 0x00, 0x00, 0xFC, 0xFF, 0xFF, 0xFF, 0xFF, 0x37, 0x00, 
  0x00, 0x00, 0x00, 0x00, 0x00, 0xFC, 0xFF, 0xFF, 0xFF, 0xFF, 0x1F, 0x00, 
  0x00, 0x00, 0x00, 0x00, 0x00, 0xFC, 0xFF, 0xFF, 0xFF, 0x3F, 0x0F, 0x00, 
  0x00, 0x00, 0x00, 0x00, 0x00, 0xFC, 0xFF, 0xFF, 0xFF, 0x7F, 0x00, 0x00, 
  0x00, 0x00, 0x00, 0x00, 0x00, 0xFE, 0xFF, 0xFF, 0xFF, 0x7F, 0x00, 0x00, 
  0x00, 0x00, 0x00, 0x00, 0x00, 0xFE, 0xFF, 0xFF, 0xFF, 0x7F, 0x00, 0x00, 
  0x00, 0x00, 0x00, 0x00, 0x00, 0xFE, 0xFF, 0xFF, 0xFF, 0x7F, 0x00, 0x00, 
  0x00, 0x00, 0x00, 0x00, 0x00, 0xFE, 0xFF, 0xFF, 0xFF, 0x7F, 0x00, 0x00, 
  0x00, 0x00, 0x00, 0x00, 0x00, 0xF0, 0xFF, 0xFF, 0x7F, 0x00, 0x00, 0x00, 
  0x00, 0x00, 0x00, 0x00, 0x00, 0x00, 0x60, 0x00, 0x60, 0x00, 0x00, 0x00, 
  0x00, 0x00, 0x00, 0x00, 0x00, 0x00, 0x60, 0x00, 0x60, 0x00, 0x00, 0x00, 
  0x00, 0x00, 0x00, 0x00, 0x00, 0x00, 0x60, 0x00, 0x70, 0x00, 0x00, 0x00, 
  0x00, 0x00, 0x00, 0x00, 0x00, 0x00, 0x60, 0x00, 0x60, 0x00, 0x00, 0x00, 
  0x00, 0x00, 0x00, 0x00, 0x00, 0x00, 0x60, 0x00, 0x60, 0x00, 0x00, 0x00, 
  0x00, 0x00, 0x00, 0x00, 0x00, 0xC0, 0x7F, 0xC0, 0x7F, 0x00, 0x00, 0x00, 
  0x00, 0x00, 0x00, 0x00, 0x00, 0xE0, 0x7F, 0xE0, 0x7F, 0x00, 0x00, 0x00, 
  0x00, 0x00, 0x00, 0x00, 0x00, 0xC0, 0x7F, 0xC0, 0x3F, 0x00, 0x00, 0x00, 
  0x00, 0x00, 0x00, 0x00, 0x00, 0x00, 0x00, 0x00, 0x00, 0x00, 0x00, 0x00, 
  };
