#define 1514981409669_width 50
#define 1514981409669_height 50
static char 1514981409669_bits[] = {
  0x00, 0x00, 0xC0, 0x0F, 0x00, 0x00, 0x00, 0x00, 0x00, 0xE0, 0x1F, 0x00, 
  0x00, 0x00, 0x00, 0x00, 0x70, 0x38, 0x00, 0x00, 0x00, 0x00, 0x00, 0x38, 
  0x70, 0x00, 0x00, 0x00, 0x00, 0x00, 0x1C, 0xE0, 0x00, 0x00, 0x00, 0x00, 
  0x00, 0x0C, 0xC0, 0x00, 0x00, 0x00, 0x00, 0x00, 0x0C, 0xFE, 0x00, 0x00, 
  0x00, 0x00, 0x00, 0x0C, 0xFF, 0x00, 0x00, 0x00, 0x00, 0x00, 0x0C, 0xFE, 
  0x00, 0x00, 0x00, 0x00, 0x00, 0x0C, 0xC0, 0x00, 0x00, 0x00, 0x00, 0x00, 
  0x0C, 0xC0, 0x00, 0x00, 0x00, 0x00, 0x00, 0x0C, 0xFE, 0x00, 0x00, 0x00, 
  0x00, 0x00, 0x0C, 0xFF, 0x00, 0x00, 0x00, 0x00, 0x00, 0x0C, 0xFE, 0x00, 
  0x00, 0x00, 0x00, 0x00, 0x0C, 0xC0, 0x00, 0x00, 0x00, 0x00, 0x00, 0x0C, 
  0xC0, 0x00, 0x00, 0x00, 0x00, 0x00, 0x0C, 0xFE, 0x00, 0x00, 0x00, 0x00, 
  0x00, 0x0C, 0xFF, 0x00, 0x00, 0x00, 0x00, 0x00, 0x0C, 0xFE, 0x00, 0x00, 
  0x00, 0x00, 0x00, 0x0C, 0xC0, 0x00, 0x00, 0x00, 0x00, 0x00, 0x0C, 0xC0, 
  0x00, 0x00, 0x00, 0x00, 0x00, 0x8C, 0xC7, 0x00, 0x00, 0x00, 0x00, 0x00, 
  0xCC, 0xCF, 0x00, 0x00, 0x00, 0x00, 0x00, 0xCC, 0xCF, 0x00, 0x00, 0x00, 
  0x00, 0x00, 0xCC, 0xCF, 0x00, 0x00, 0x00, 0x00, 0x00, 0xCC, 0xCF, 0x00, 
  0x00, 0x00, 0x00, 0x00, 0xCC, 0xCF, 0x00, 0x00, 0x00, 0x00, 0x00, 0xCC, 
  0xCF, 0x00, 0x00, 0x00, 0x00, 0x00, 0xCC, 0xCF, 0x00, 0x00, 0x00, 0x00, 
  0x00, 0xCC, 0xCF, 0x00, 0x00, 0x00, 0x00, 0x00, 0xCC, 0xCF, 0x00, 0x00, 
  0x00, 0x00, 0x00, 0xCE, 0xCF, 0x01, 0x00, 0x00, 0x00, 0x00, 0xC7, 0x8F, 
  0x03, 0x00, 0x00, 0x00, 0x00, 0xE3, 0x1F, 0x03, 0x00, 0x00, 0x00, 0x80, 
  0xF3, 0x3F, 0x07, 0x00, 0x00, 0x00, 0x80, 0xF9, 0x7F, 0x06, 0x00, 0x00, 
  0x00, 0xC0, 0xF9, 0x7F, 0x0E, 0x00, 0x00, 0x00, 0xC0, 0xFC, 0xFF, 0x0C, 
  0x00, 0x00, 0x00, 0xC0, 0xFC, 0xFF, 0x0C, 0x00, 0x00, 0x00, 0xC0, 0xFC, 
  0xFF, 0x0C, 0x00, 0x00, 0x00, 0xC0, 0xFC, 0xFF, 0x0C, 0x00, 0x00, 0x00, 
  0xC0, 0xF8, 0x7F, 0x0E, 0x00, 0x00, 0x00, 0x80, 0xF9, 0x7F, 0x06, 0x00, 
  0x00, 0x00, 0x80, 0xF3, 0x3F, 0x06, 0x00, 0x00, 0x00, 0x80, 0xE3, 0x1F, 
  0x03, 0x00, 0x00, 0x00, 0x00, 0x87, 0x87, 0x03, 0x00, 0x00, 0x00, 0x00, 
  0x0E, 0xC0, 0x01, 0x00, 0x00, 0x00, 0x00, 0x7C, 0xF8, 0x00, 0x00, 0x00, 
  0x00, 0x00, 0xF8, 0x7F, 0x00, 0x00, 0x00, 0x00, 0x00, 0xC0, 0x0F, 0x00, 
  0x00, 0x00, };
