#define 1514037062387_width 40
#define 1514037062387_height 40
static char 1514037062387_bits[] = {
  0x00, 0x00, 0x00, 0x00, 0x00, 0x00, 0x00, 0x00, 0x00, 0x00, 0x00, 0x00, 
  0x00, 0x00, 0x00, 0x00, 0x00, 0x00, 0x00, 0x00, 0x00, 0x00, 0x00, 0x00, 
  0x00, 0x00, 0x00, 0x00, 0x00, 0x00, 0x00, 0x00, 0x00, 0x00, 0x00, 0x00, 
  0x00, 0x00, 0x00, 0x00, 0x00, 0x00, 0x00, 0x00, 0x00, 0x00, 0x00, 0x00, 
  0x00, 0x00, 0x00, 0x00, 0x00, 0x00, 0x00, 0x00, 0x00, 0x00, 0x00, 0x00, 
  0x00, 0x00, 0x00, 0x00, 0x00, 0x00, 0x00, 0x00, 0x00, 0x00, 0x00, 0x00, 
  0x7C, 0x00, 0x00, 0x00, 0xC0, 0xFF, 0x03, 0x00, 0x00, 0xF0, 0xFF, 0x0F, 
  0x00, 0x00, 0xF8, 0xFF, 0x3F, 0x00, 0x00, 0xFC, 0xFF, 0x7F, 0x00, 0x00, 
  0xFF, 0x01, 0xFF, 0x00, 0x00, 0x7F, 0x00, 0xFC, 0x01, 0x80, 0x3F, 0x00, 
  0xF8, 0x01, 0x00, 0x0F, 0x3C, 0xF0, 0x01, 0x00, 0x06, 0xFF, 0xC1, 0x00, 
  0x00, 0xC0, 0xFF, 0x43, 0x00, 0x00, 0xE0, 0xFF, 0x07, 0x00, 0x00, 0xF0, 
  0xFF, 0x0F, 0x00, 0x00, 0xE0, 0xC3, 0x07, 0x00, 0x00, 0xC0, 0x01, 0x03, 
  0x00, 0x00, 0x80, 0x00, 0x02, 0x00, 0x00, 0x00, 0x3C, 0x00, 0x00, 0x00, 
  0x00, 0x7C, 0x00, 0x00, 0x00, 0x00, 0x7E, 0x00, 0x00, 0x00, 0x00, 0x3C, 
  0x00, 0x00, 0x00, 0x00, 0x38, 0x00, 0x00, 0x00, 0x00, 0x00, 0x00, 0x00, 
  0x00, 0x00, 0x00, 0x00, 0x00, 0x00, 0x00, 0x00, 0x00, 0x00, 0x00, 0x00, 
  0x00, 0x00, 0x00, 0x00, 0x00, 0x00, 0x00, 0x00, };
